<svg xmlns="http://www.w3.org/2000/svg" width="1080" height="2131"><path fill="#FFF" d="M0 0h1080v2131H0z"/><path d="m1284.595-37.43-3.37-76.044-2.128-72.861-9.265-47.693-57.945-28.475q-162.96-59.835-189.963-71.977l-32.467-8.022-44.072 96.086-9.222 57.108-6.39 71.865 12.608 58.351 22.495-42.103 25.34 45.625 25.877 38.853 35.425 46.325 51.701 48.262q38.183-32.05 112.608-85.866l68.768-29.434" style="fill:#885f23;fill-opacity:1;stroke-linejoin:miter"/><path d="m1213.705-8.724-3.388-8.682q-22.663-56.948-31.415-90.748-8.273-30.445-11.19-80.282l-30.25 40.826q-15.956-26.414-18.939-37.386-7.33-24.112-5.964-42.553.505-24.51 7.766-69.028 81.89 36.444 144.528 68.903l30.393 46.337-1.66 92.07 14.917 59.372-94.798 21.17" style="fill:#614513;fill-opacity:1;stroke-linejoin:miter"/><path d="m285.49 991.866 330.037-53.483 300.911-66.334 259.572-120.763 123.003-106.485 49.25-52.024 58.91-114.559 11.574-114.15q-46.197-78.518-52.817-108.925l60.016-81.411 10.014-81.138-31.343-90.483-61.495-32.822-57.73-9.673-61.995 23.056-48.8 33.058-67.908 69.328-56.52-56.603L977.64-78.717l-9.403-24.729-28.868 40.722q-12.065-24.92-10.758-86.232l6.13-72.477q42.101-90.896 64.115-128.997-53.78-18.895-233.453-53.633l-171.645-14.98-120.205-3.464q-126.544 7.48-216.297 9.272-51.639 49.117-137.096 171.973-38.03 83.481-93.755 174.761-81.84 68.084-154.891 158.245l-50.454 125.5-.076 94.465q-3.052 56.651 42.482 207.857l60.079 121.728L11.187 770.94l94.434 96.385q89.09 63.748 179.869 124.542" style="fill:#fbd0a6;fill-opacity:1;stroke-linejoin:miter"/><path d="m1070.684 804.961-4.591-42.894q-28.758-266.514-61.095-359.81-10.648-37.597-49.518-103.92-16.715-26.933-91.023-112.615-14.18-20.874-20.433-36.277-5.29-8.22-.598-48.254Q871.481 4.21 874.454-20.44q3.836-56.303.525-69.964-9.36-54.715-34.736-119.916-51.294-123.23-92.333-194.851l172.12 34.248 77.684 26.862-35.3 44.372-28.792 92.154-5.397 67.691 14.267 80.112 25.907-42.07 26.684 66.047 66.628 73.245 52.78 49.976 76.265-94.154 82.137-20.392 61.043-4.835 57.707 23.672 39.417 65.466 10.027 84.358-29.583 55.766-36.857 50.7 29.136 58.407 8.576 69.189-2.425 82.682-25.7 79.479-62.534 96.44-65.797 63.66q-50.588 37.658-185.219 107.057" style="fill:#ecae7d;fill-opacity:.60784316;stroke-linejoin:miter"/><path d="m192.174 633.985 3.958 2.007q27.713 14.026 40.237 17.252 14.125 4.365 28.896 4.456 6.558-.035 13.33-.985l6.814-1.137q6.863-1.345 13.88-3.356 17.506-4.862 50.208-18.738-24.308 33.922-39.097 43.292-4.699 3.397-9.923 6.171-2.003 1.475-13.93 5.845-4.862 1.567-9.873 2.587l-5.017.873q-5.038.733-10.035.865-22.829.662-38.007-11.44-13.262-8.78-31.44-47.692" style="fill:#ecae7d;fill-opacity:1;stroke-linejoin:miter"/><path d="m31.129 304.813 91.85 28.386q90.528 28.731 134.586 38.714 35.635 8.117 72.372 12.96 18.1 2.285 53.434 4.304 60.391 2.12 113.744-7.92 44.968-8.472 61.675-12.581l38.396-17.992-.759 34.943-15.908 22.65-113.017 24.44-89.074-.15-100.795-13.087Q182.586 377.355 31.13 304.813" style="fill:#fffbe0;fill-opacity:.60784316;stroke-linejoin:miter"/><path d="m567.232 118.72-2.806-.862q-21.646-5.832-37.94-22.125-23.316-27.195-33.259-52.772-13.19-29.753-13.843-64.724.709-29.149 8.617-47.365 21.053-49.05 73.15-75.672 23.986-11.167 54.949-14.536 35.332-.07 49.728 5.984 61.997 17.95 96.153 81.49 7.807 13.463 13.285 32.67 2.921 9.936 3.941 27.749.515 16.945-11.53 55.916 5.807-17.79 7.494-33.305 1.534-26.367-2.223-35.23-11.772-35.61-20.72-47.46-10.566-16.993-24.774-30.801-8.968-8.978-30.914-20.999-12.62-6.167-25.65-8.764-16.716-3.33-34.265-2.517-22.12 1.923-26.793 3.551-9.087 1.961-18.383 4.958-17.014 6.648-30.42 15.425-11.07 5.984-27.88 25.27-26.969 33.391-32.2 87.894-1.466 34.906 13.367 59.117 24.97 35.734 52.916 57.109" style="fill:#fffbe0;fill-opacity:.59607846;stroke-linejoin:miter"/><path d="m40.264 41.36 4.443 2.89q19.498 12.832 30.59 15.37 12.72 3.144 23.576-4.725Q116.88 40.28 127.63 11.23q4.175-13.55 3.272-18.446-.837-7.349-6.869-11.198-4.133-2.317-11.465-3.525-4.6-1.218-23.327-1.288L62.548-12.06 40.264 41.36" style="fill:#fffbe0;fill-opacity:.6039216;stroke-linejoin:miter"/><path d="m335.029-417.009-33.036 52.07Q113.887-73.621 106.529-25.7L67.946-18.39 27.48 54.522Q-8.108 69.701-22.694 99.698q-27.585 54.154-42.43 109.455-7.422 27.65-11.66 55.588-7.806 70.095-5.545 84.458 9.75 91.206 36.79 171.118 4.058 21.742 50.287 113.516 20.005 35.722 44.332 68.62 70.997 92.843 141.143 158.68 122.462 105.93 174.033 122.394l-73.656 7.86-125.422-75.62L40.81 803.148l-80.83-97.489-66.463-113.312-60.33-165.221-12.302-130.378 9.023-86.547L-119.56 79.68 38.724-91.159q103.141-196.86 148.253-260.683l60.42-65.816 87.632.649" style="fill:#fffbe0;fill-opacity:.6;stroke-linejoin:miter"/><path d="m723.627 113.937-.384-.176q-9.524-5.976-51.875-7.658-14.795-.256-26.172 1.253-5.932.794-17.824 4.174-13.452 4.591-20.783 9.368-5.958 3.226-8.758 8.317-.488 2.31.164 5.02 1.123 2.416 3.924 5.697 5.191 4.93 13.684 8.913 3.372 1.817 13.5 4.162 11.085 1.66 21.12 1.764 18.393-.217 28.06-1.255 5.458-.52 9.98-1.243 10.488-1.988 11.463-2.63 1.77-.34 8.76-4.063 2.686-1.608 5.062-3.553 4.336-3.277 9.094-10.36 3.191-4.961 4.159-10.83.719-2.392-3.174-6.9" style="fill:#fffbe0;fill-opacity:.6039216;stroke-linejoin:miter"/><path d="m516.107-240.291-2.4-3.34q-7.38-10.022-11.792-18.367-2.206-4.172-3.67-7.925-1.465-3.752-2.188-7.086l-.538-3.228q-1.125-7.002.017-14.94.57-3.97 1.709-8.173.215-1.955 4.69-13.136 5.289-10.529 9.208-14.471 6.418-6.073 11.378-6.895 5.814-1.328 13.678 1.429 5.3 1.858 17.302 9.133l-37.394 86.999" style="fill:#fffbe0;fill-opacity:.59607846;stroke-linejoin:miter"/><path d="m567.773 118.97-34.04-30.066-23.491-42.091-6.778-39.425 6.13-49.887 27.839-42.61 37.071-31.025 33.963-15.574 77.336 4.426 28.033 15.038 42.635 40.015 15 37.398 3.67 24.459-.666 38.072-12.51 39.233-16.283 19.956-60.999-2.188-48.562 2.302-68.348 31.967" style="fill:url(#a);fill-opacity:1;stroke-linejoin:miter"/><path d="m621.372 90.805-12.761-13.04-19.75-26.829-4.131-37.1 14.64-29.502 19.862-24.018 30.308-13.42 24.038-.839 37.345 13.264 13.472 17.855 17.76 21.725 2.359 29.879-6.747 24.42q-6.202 12.16-16.299 28.345l-58.332-1.1-41.764 10.36" style="fill:url(#b);fill-opacity:1;stroke-linejoin:miter"/><path d="M1640.98 951.834v.001l.001.001-.001-.002" style="fill:#0063ff;fill-opacity:1;stroke-linejoin:miter"/><path d="m248.405-419.01 5.447-58.724-11.61-37.079-65.097-13.669-81.202-72.667-50.116-97.334L33.2-803.004l52.533-110.117 106.142-86.616 150.595-28.912 116.07 58.198 80.155-70.945 165.153-71.138 151.41-4.427q202.584 76.978 240.63 97.535l103.34 75.513 26.4 94.719q129.957 17.465 190.777 20.322l93.367 69.468 54.144 120.548-8.296 88.442-83.46 91.447-70.504 48.162-89.85 3.75q-26.596 86.404-34.464 173.665l-35.785-11.94q-102.06-43.209-185.86-84.392l-136.022-40.242-142.54-28.804-152.065-16.774-376.666-3.468" style="fill:#def2fb;fill-opacity:1;stroke-linejoin:miter"/><path d="m1360.128-840.045-1.868 5.922q-6.071 17.597-7.94 36.722-.38 16.366.758 20.08 1.022 6.974 3.327 14.414 7.014 19.005 9.865 22.846 4.185 7.617 9.305 14.6 5.12 6.984 10.945 12.762l5.943 5.335q6.09 4.962 12.535 7.862 6.446 2.9 13.014 3.167 3.533.112 7.067-.587 3.535-.699 7.071-2.132 1.767-.315 10.613-5.764 20.495-13.717 54.017-58.94l-134.652-76.287M875.712-1057.104l-.987-.573q-27.01-15.409-68.636-20.555-25.323-3.288-55.354 8.26-16.74 6.25-39.813 20.035-11.982 8.423-15.188 16.344-8.15 24.489 19.189 39.91 13.847 7.14 29.69 10.924 31.306 8.06 52.218 9.633 12.503 1.346 31.69-.937 19.313-2.628 37.578-9.684 19.812-8.028 30.801-16.176 8.01-6.238 8.547-13.294-.238-23.631-29.735-43.887M879.79-960.092l-.216.063q-3.9.986-6.309 3.32-5.503 4.98-8.682 9.294-3.925 5.587-4.734 8.35-1.563 4.347-1.129 5.859.603 5.834 11.88 13.377 3.438 2.073 4.197 2.292 1.443.64 2.931 1.044 1.489.405 3.01.512 2.312.143 4.21-.42 6.552-2.139 12.392-9.448 2.464-3.264 3.07-4.974.993-2.712.932-3.27.147-1.1.013-2.178-1.917-7.992-8.845-15.263-4.291-4.516-7.416-6.598-1.29-1.163-5.304-1.96M335.209-998.291l-.985-.147q-12.074-2.096-27.98-.03-5.559.678-11.068 1.688l-38.093 7.365q-18.259 3.943-23.572 15.007-7.095 13.632-8.705 31.794-1.422 19.63 3.931 30.525 3.522 6.87 6.079 9.093l6.296 5.515 7.061 4.327 7.715 3.245q8.04 2.704 16.94 3.675 18.022 1.727 36.788-.904 9.27-1.207 18.055-2.86 32.635-6.123 37.21-7.82 25.358-7.079 33.03-21.913 9.848-20.936-10.975-45.06-24.237-27.324-51.727-33.5" style="fill:#fff;fill-opacity:1;stroke-linejoin:miter"/><path d="m267.165-523.612-2.15-68.072q-10.349-65.628-22.79-77.543-1.169-2.434-9.974-7.484l-30.709-9.357q-10.039-3.645-21.015-12.439-22.517-18.238-42.598-53.232-25.247-42.232-48.21-147.317l-23.44 74.568-15.592 65.804 8.097 71.666 27.42 63.141 46.56 59.162 46.775 34.06 87.626 7.043M453.12-977.525l45.108 49.315 43.474 47.657q4.762-34.479-.329-56.431-1.227-7.802-8.434-28.746-5.363-15.095-17.785-44.014l-62.034 32.22M1326.506-839.777l-.51 8.108q-1.15 24.506-5.74 47.378-4.788 18.602-6.739 21.85-2.875 6.984-6.802 13.47-3.959 6.47-8.968 12.44-1.992 3.23-16.917 17.015-15.379 13.57-48.948 35.2l2.796-68.295-.89-63.75-4.643-40.61 97.36 17.194M1539.224-577.004l-6.919 3.873q-38.263 21.77-59.576 28.64-14.962 4.303-17.509 4.151-26.8 1.984-31.703 3.12-10.326 1.665-21.553 8.503-8.303 3.746-30.23 28.76-26.2 32.813-43.062 61.515-6.692 10.743-13.52 24.547-4.441 9.303-6.839 18.87l52.338-7.1 98.622-49.534 70.652-44.097 9.3-81.248" style="fill:#b5e4f9;fill-opacity:1;stroke-linejoin:miter"/><path d="M1280.477-230.952a11.459 11.459 0 0 1-5.2-1.047c-143.965-66.426-286.542-132.155-452.597-163.264-166.287-31.153-356.545-27.686-548.354-24.145-6.328.117-11.552-4.918-11.67-11.246-.116-6.328 4.92-11.553 11.247-11.67 191.206-3.53 383.962-7.135 552.997 24.533 169.266 31.71 314.318 98.695 457.98 164.98l-5.2-1.047c6.326-.22 11.632 4.73 11.852 11.054.22 6.326-4.729 11.632-11.054 11.852ZM937.753 869.842v.002c-1.387 6.176-7.517 10.058-13.692 8.672-6.176-1.386-10.058-7.516-8.672-13.691v-.003c1.386-6.175 7.516-10.058 13.692-8.672 6.175 1.386 10.058 7.516 8.672 13.692Z" style="fill:#fff;fill-opacity:1;stroke-linejoin:miter"/><path d="m590.692 405.282 5.542-37.173-3.644-35.257-14.69-35.278-14.02-48.068 11.405-29.518 26.891-27.05 25.605-13.479 27.524 14.997 38.555 14.253 23.945 30.653q7.073 36.837 15.009 92.217l-142.122 73.703" style="fill:#ff0c00;fill-opacity:1;stroke-linejoin:miter"/><path d="m647.572 211.974-.096-.117q-1.34-1.82-3.495-2.636-4.615-1.906-8.092-2.587-3.823-.836-7.7-.848-3.33-.022-5.329.716-1.112.415-2.127 1.02-.56.213-2.855 2.148-2.124 1.803-5.81 6.996-2.462 3.379-4.054 7.459-.72 2.038.23 3.21.868.94 2.562 1.302 2.86.654 6.331.711 4.245.03 7.728-.467 2.751-.382 5.342-1.315 5.455-1.998 12.582-8.212 2.189-1.873 4.07-4.61 1.05-1.69.713-2.77M659.373 244.602l1.4-.046q2.824-.068 5.334-.407 2.511-.34 4.29-1.31.877-.497 1.492-1.22l.537-.79.338-.782q.281-.833.345-1.806.064-.974-.073-2.03-.51-2.67-.83-3.21-.71-2.027-2.53-4.25-.902-1.242-3.462-2.63-2.318-1.068-4.825-1.09-2.506-.02-4.701.916-1.082.465-1.991 1.153l-.854.738-.753.831q-.702.877-1.202 1.876-1 2.028-1.2 4.157-.1 1.049 0 2.027l.148.944q.416 1.757 1.352 2.824 1.533 2.097 7.185 4.105M560.239-844.84v.002h-.001l.001-.002" style="fill:#ff9f9f;fill-opacity:1;stroke-linejoin:miter"/><path d="m-884.848 219.905 323.447-76.602 244.242-31.61-12.355-81.181 20.835-76.051 2.838-44.578 54.83-14.914 17.287-49.296-13.384-66.866-20.932-40.638-58.623-55.928-70.18-36.905-59.659 1.338-82.325 33.897 3.855-105.623 48.676-20.56 46.926-39.941 20.387-54.491-4.671-54.74-45.116-45.606-56.965 5.876L-636.9-579l-42.594-53.392-46.906 12.203-54.92 60.272-56.413 120.606-31.831-67.792-39.211-21.548-59.919 41.518-19.999 49.523-29.743 147.86 4.738 139.8 24.322 137.62 33.256 113.029 71.272 119.207" style="fill:#fbd0a6;fill-opacity:1;stroke-linejoin:miter"/><path d="m-431.137-290.633-2.372 2.645q-15.65 17.06-24.029 30.34-7.623 11.699-18.048 37.984-27.753 5.894-44.545 6.629-18.623 1.44-45.905-9.658l-.937 5.112q-7.255 31.394.403 73.145 8.508 45.208 35.297 119.588 9.027 25.036 15.162 28.867l1.607.562 30.844-6.22 11.091-40.676 21.907-61.56 28.496-64.7-22.657-47.182 13.686-74.876M-698.294-378.215l-.015 3.016q-.045 5.994.074 12.448.119 6.455.618 13.984.256 3.785.648 7.953l.433 4.283q.963 8.842 2.469 19.22 1.336 9.898 7.11 44.583 2.898 13.494 4.104 16.886 1.229 3.266 1.242-1.496.015-3.148-.253-7.699.009-1.232-1.325-18.578-.939-12.835-6.835-76.412l-8.27-18.188M-844.567-328.565l.412-.374q1.401-2.027 4.784.197 2.72 1.956 7.73 9.243 3.3 4.863 6.567 11.52 3.267 6.658 5.519 14.507 3.153 11.78 3.044 24.945.1 10.888-1.965 31.433l-6.745-43.614-19.346-47.857" style="fill:#ecae7d;fill-opacity:1;stroke-linejoin:miter"/><path d="m-350.811-99.09-4.837 1.457q-29.724 8.598-41.601 17.095-10.907 7.308-13.706 20.516-1.604 14.558 5.35 30.405 4.203 9.82 10.031 20.489l18.306 31.504q1.65 3.726-3.655 5.273-1.769 1.459-34.507 2.852L-460.998 8.19l-29.708-6.546 16.226-43.106 11.271-25.532 32.167-25.26 38.581-16.576 27.171-4.843 14.479 14.584" style="fill:#fffbe0;fill-opacity:.5058824;stroke-linejoin:miter"/><path d="m-425.16 29.867-2.303 1.955q-22.376 19.655-34.747 24.833-13.65 5.427-38.516 9.932-12.96 2.09-23.19.809-15.121-2.584-22.4-15.49-5.562-8.828-13.875-36.484l30.85-16.15 26.426-3.945 26.435 3.563 51.32 30.977" style="fill:#fffbe0;fill-opacity:.5058824;stroke-linejoin:miter"/><path d="m-248.964-115.057-9.863-1.926q-36.202-6.988-57.714-14.69-25.854-8.221-50.741-28.145-30.572-25.521-73.201-97.915l1.787 38.286 17.896 48.148 39.96 48.734 51.518 25.967 41.967 10.311 38.391-28.77" style="fill:#fffbe0;fill-opacity:.49803922;stroke-linejoin:miter"/><path d="m-697.74-443.281 3.075 89.557 8.821 64.53 17.733 52.322q-1.148-159.562 3.66-161.45 2.44-8.095 7.422-14.629 36.537-36.64 42.666-50.206 1.28-1.876 6.972-16.149l16.352-54.406q4.413-12.03 11.313-22.574 28.426-37.722 60.72-48.015 16.589-5.8 35.027-6.05l18.9 1.14q19.363 2.526 40.575 10.603l-62.008-44.98-81.369 15.127-47.824 34.318-26.45 41.335-5.453 59.712-50.132 49.815" style="fill:#fffbe0;fill-opacity:.5058824;stroke-linejoin:miter"/><path d="m-829.424-421.21-1.808 6.713q-13.36 47.83-8.328 72.138 2.944 14.941 13.61 34.392l26 40.68 9.808 17.816q-4.9-68.716-1.53-105.322 4.143-51.13 25.03-109.164 21.564-57.486 49.154-89.618 19.579-23.475 63.41-52.708l-27.717-24.23-43.492 27.003-47.548 45.575-31.744 36.775-24.845 99.95" style="fill:#fffbe0;fill-opacity:.50980395;stroke-linejoin:miter"/><path d="m-875.068-508.043-3.6 3.178q-31.735 19.596-59.053 124.61-23.91 99.665-18.683 188.375 6 94.149 29.086 176.195 11.688 43.428 27.94 88.64l17.393 45.657q18.533 46.104 41.63 93.991l-43.743 11.075-30.598-64.445-40.702-70.351-41.692-115.57-19.112-148.515-5.287-159.464q29.765-78.234 61.608-153.67l7.993-18.815 39.118-16.772 37.702 15.88" style="fill:#fffbe0;fill-opacity:.5058824;stroke-linejoin:miter"/><path d="M-786.988-440.002" style="fill:#fffbe0;fill-opacity:1;stroke-linejoin:miter"/><path d="m700.763 1227.557-27.327 62.446-21.64 26.965 56.03 28.128 100.756 94.828 41.35 89.397 6.15 82.4 16.41 54.18 101.263-28.606 184.26-87.29q170.451-100.975 240.844-169.373 73.04-65.202 189.456-231.428l98.592-193.671 73.457-341.055-43.571-2.595-75.62-40.594-65.738 10.647-46.005 25.133-23.274 87.046-41.374 79.474-119.71 132.626-123.503 92.981-142.779 91.207-179.794 75.05-198.233 62.104M-83.011 1505.376l186.56 78.796 126.784 66.362 206.489 48.669 161.97 7.663 104.068-30.17q-70.488-33.34-129.76-57.043l-61.5-65.993-50.536-134.177-95.36 20.008-68.7-12.83-80.147-29.041-68.506-32.488-60.418 60.815-83.063 49.12-87.881 30.309M-264.99 1300.257l-88.924-106.982 33.487-58.376-212.08-223.098-137.326-198.285-131.2-229.834 95.742-41.325q171.434-41.748 347.823-81.147l125.222-20.847q30.598 75.17 78.734 174.699l18.567 26.497-7.529 60.007 8.431 62.95 53.789 183.141 52.04 56.189 50.232 97.953 45.394 65.141-14.597 78.316q-58.693 8.372-193.641 46.69l-56.75 36.924-67.414 71.387" style="fill:#def2fb;fill-opacity:1;stroke-linejoin:miter"/><path d="m-934.525 234.161 42.778 171.35 52.836 94.631 87.453-41.598 187.017-43.537 211.586-60.564 158.728-21.577q-60.522-194.994-66.463-239.64l-231.749 45.458-150.645 26.413-291.541 69.064" style="fill:#7d7d7d;fill-opacity:1;stroke-linejoin:miter"/><path d="M-797.836-1377.454v.003-.003" style="fill:#989898;fill-opacity:1;stroke-linejoin:miter"/><path d="m149.443 1357.51-51.925 58.5-95.964 57.267-54.659 16.575 70.49 49.54q78.374-16.084 107.835-27.587 31.198-10.886 74.141-39.58 66.546 31.035 114.126 33.41 45.026 4.72 163.691-12.124l-12.368-34.776-6.852-32.47-64.423 8.384-87.752-1.302-73.501-18.137-82.839-57.7M711.13 1226.206l-57.236 85.264q57.629 40.352 140.083 103.868l41.725 85.901q20.81 73.564 31.9 166.481l57.685-22.521q5.4-158.237-17.821-217.347-18.596-62.68-107.628-148.024Q1303.37 1154.041 1496.6 842.52q72.764-106.364 115.079-270.474l-39.52 6.275-36.946 18.61-27.722 89.203-77.299 121.48-115.49 114.86-136.581 110.186q-176.31 91.628-280.524 134.936l-186.466 58.611" style="fill:#b5e4f9;fill-opacity:1;stroke-linejoin:miter"/><path d="m1765.013 642.832-27.152-66.182q-14.741-28.548-145.48-145.78l-89.793-44.967-74.123-9.065-11.352 18.496q4.112 42.834-28.597 121.642l-43.864 81.875q-74.432 99.006-249.278 192.02-118.125 47.105-148.807 65.42l-99.103 29.76-201.359 47.443-358.07 57.56L134.89 891.56Q62.66 831.106 9.173 770.253-83.818 660.66-129.041 529.324q-18.442 12.593-15.568 69.851 27.702 135.428 60.002 227.032l48.393 94.418Q57.335 1055.813 71.973 1058.8q-21.879 40.585-17.389 92.13l-163.174 23.917-68.333 35.101-71.56 60.112-87.113 129.945-26.006 78.42 104.519 24.774 123.237-4.083 107.682-22.003 86.938-30.304q18.164-8.009 92.259-92.96l64.42 45.485 76.479 28.28 100.182 11.21 67.144-5.097q17.84 35.834 34.664 95.339l47.72 69.752 74.597 48.762 77.037 30.562 176.524 46.951q-6.775-74.501-37.5-207.83l-24.574-68.241q-26.755-49.476-57.177-75.299-63.083-36.833-94.832-64.599l48.768-79.11 53.79-12.74 163.796-61.709 196.82-88.823 198.793-137.326 114.894-106.543 97.252-179.246 8.375-49.285 49.634-17.483 52.837-3.564q52.062 18.998 122.337 69.537" style="fill:#00ec20;fill-opacity:1;stroke-linejoin:miter"/><path d="m713.82 1351.65-8.01 9.763q-31.555 40.215-67.02 71.062-22.888 17.552-28.091 19.563-19.599 10.954-41.152 17.223-5.175 2.08-33.003 7.794-16.746 3.31-57.123 7.914l-18.778-52.08 58.97-28.478 63.36-34.19 71.132-55.315 59.716 36.745M151.275 1359.329l-54.963 51.999q-71.11-58.523-91.606-100.772-23.183-39.93-39.433-145.768l88.622-15.357 8.892 58.701 29.474 74.943 59.014 76.254" style="fill:#00aa17;fill-opacity:1;stroke-linejoin:miter"/><path d="m58.616 1055.654-4.268 68.196-1.712 81.767 47.253 89.864 73 71.763 71.67 43.26 47.051 9.41q-44.228-37.941-66.152-60.198-26.8-26.494-46.651-56.06-66.126-106.422-32.812-169.023l-87.38-78.98M-65.301 673.493l-2.2 3.106q-15.283 19.346-15.076 42.02-.32 17.107 13.248 56.753 28.32 78.523 49.552 120.691 4.258 11.756 69.296 121.832l-72.667-88.21-40.921-75.559-31.436-77.743-34.05-96.668-10.24-55.324-1.284-77.395 3.685-22.189 31.243 67.796 40.85 80.89M1117.068 778.085l22.563-5.904q133.538-34.394 158.351-34.799 34.698-2.649 37.245-.468 18.184 3.273 20.618 15.807 6.481 12.97-24.69 66.837-21.339 39.002-137.205 204.679l198.37-155.66q60.49-92.577 93.186-138.492 13.47-20.614 58.947-134.008l50.959-21.71 66.956 3.944 67.047 37.667 42.549 36.285-49.746-96.281-53.927-56.626-31.524-51.9-49.571-20.746-67.274-40.273-92.03-15.38-12.407 71.712-25.8 82.756-42.854 73.221-51.505 59.916-56.724 50.139-121.534 69.284" style="fill:#00aa17;fill-opacity:1;stroke-linejoin:miter"/><path d="m723.776 1469.654-6.512-7.89q-8.388-10.906-14.106-20.894-1.847-2.641-7.077-14.466-1.86-4.65-3.05-9.069-2.358-8.852-1.383-14.84.487-2.994 1.808-5.272l1.529-2.1q1.737-1.919 4.307-3.123 2.679-.888 5.793-.922 3.114-.035 6.664.785l3.659 1.034q7.534 2.494 16.81 8.405 18.645 11.936 36.71 33.26 9.274 11.086 15.587 21.32 5.54 7.923 11.795 24.11l1.358 4.477q1.179 4.426 1.524 8.136.346 3.71-.142 6.704-.974 5.988-5.281 9.112-4.61 3.052-11.379 2.126-1.394.337-10.976-3.1-3.985-1.675-8.405-4.203-16.974-9.055-39.233-33.59M740.3 1554.338l-2.39-.814q-3.13-1.378-5.451-3.447-1.16-1.035-2.118-2.243-2.217-3.17-2.418-4.011-1.301-2.95-1.466-6.002-.082-1.527.12-3.079.753-3.902 1.245-4.713 1.865-3.565 2.458-4.04.957-1.196 2.097-2.194 2.28-1.996 5.296-3.195 6.063-2.387 12.649-.378 3.39 1.093 5.895 3.027.757.367 3.329 3.234.958 1.208 1.713 2.588.548.648 1.722 4.4.366 1.5.448 3.026.165 3.053-.807 6.208-1.062 3.248-3.015 5.623-.957 1.197-2.097 2.195-1.14.998-2.464 1.797l-1.37.749q-2.867 1.418-6.038 1.804-3.329.472-7.339-.535" style="fill:#c3ffcb;fill-opacity:1;stroke-linejoin:miter"/><path d="m617.768 90.782-10.923-15.06-12.353-18.697-6.113-31.83 2.31-22.665 9.508-23.008 15.029-13.485 22.334-14.475 18.228-6.249 21.063 1.03 23.279 8.059 28.068 20.233L740.01-2.747l2.859 27.958-2.138 25.245-19.023 29.53-36.235 4.524-67.706 6.272" style="fill:#0052b6;fill-opacity:1;stroke-linejoin:miter"/><path d="m-293.997-283.557 155.962-139.423L111.54-573.875l-55.034-71.813-16.233-103.193 7.904-129.236-144.804 74.826-142.216 84.909-117.05 79.518-50.214 51.368-20.927 71.804-41.183 54.842-58.246 32.902-12.66 77.848-.278 37.96 57.198-37.856 81.718-4.655 77.071 47.688 29.417 23.406" style="fill:#ffc933;fill-opacity:1;stroke-linejoin:miter"/><path d="m-352.079 1480.053 50.299-140.126 12.7-54.46q-137.331-138.02-271.482-432.525L-807.067 480.3l-50.24 15.427q-33.327-97.321-57.165-94.714l-2.907 150.576 26.682 211.215 69.203 250.738 106.798 260.242 96.89 151.632 172.33 194.747 142.018 120.408 243.71 162.428 245.89 88.413 261.455 45.91 258.647-8.636 282.258-36.906 192.586-72.556 285.558-152.623 178.274-140.984 162.676-192.247 108.92-162.166 117.285-263.088 46.547-203.553 14.546-330.714-19.737-276.872-119.353-336.764-105.964-171.365-151.744-200.384-138.257-91.556q-8.54 62.974-51.644 108.361-22.606 38.987-161.759 85.992l171.714 174.982 133.37 205.359 71.288 188.21 41.673 241.284 6.625 192.722-51.022 239.731-81.449 218.68-140.033 206.938-123.339 131.308-195.235 155.129-188.733 85.545-119.016 39.376 4.121 50.446-153.221-27.274q-123.72 22.918-241.391 13.26l-216.515-42.135-144.68-47.835-184.022-119.539q-239.123 3.92-288.65-17.395" style="fill:#ffd04c;fill-opacity:1;stroke-linejoin:miter"/><path d="m1761.38 621.881-62.296-107.006-81.048-77.589-99.712-44.234-89.296-15.1-55.884-128.007 41.754-46.939 18.528-61.533 4.382-52.075-26.672-75.493-29.305-28.695-70.01-25.998-8.96-143.758-20.062-81.707 20.523-89.847 19.835-39.136 37.154-5.367 78.253 69.024 119.388 165.336 70 92.284 53.686 159.587 56.072 117.042 30 228.282-6.33 190.93M-360.248 1200.9l39.743-79.24-52.931-63.332-124.74-118.986 137.928 261.558M-183.67 346.734l12.968-126.355 27.743-92.895L-89.93 51.2Q12.384-45.204 34.373-74.825L89.765-190.36l14.099-79.83 63.326-60.03 72.063-103.619 18.642-76.942-59.646-7.525-90.571-69.58-83.23 77.213-129.158 72.108-92.755 74.546-81.03 79.576 36.437 66.003 12.003 68.56-15.412 47.904-44.586 22.992-19.185 47.44-12.479 62.57 9.623 64.69 56.653 11.702 30.596 148.828 41.175 90.489" style="fill:#2e9cff;fill-opacity:1;stroke-linejoin:miter"/><path d="m1383.191-515.798.008-.037q-85.708 50.145-111.102 168.631-7.519 35.26-10.053 63.752-1.482 19.305.352 74.507 2.844 66.278 8.955 116.795 7.395 60.377 13.887 70.685.206.397.08-3.993 4.726-11.883 5.502-16.578 2.134-15.355 3.703-32.068 1.74-13.327 9.162-130.061 4.372-55.155 6.443-74.045 1.524-36.268 2.829-51.506 2.481-27.308 5.859-43.805 6.657-34.822 18.552-60.974 6.69-14.682 13.736-26.66l33.934-54.018.196-.409-2.043-.216" style="fill:#000;fill-opacity:1;stroke-linejoin:miter"/><path d="M1256.15-878.818q-8.145 0-16.257.11v.002h-.003l-.011-.001q-16.665.225-33.187.914-5.4.24-10.697.484h.012q3.556 8.84 6.536 18.117 4.796 14.533 8.766 31.737l.012.002 36.925 2.142 35.85 2.082q63.137 6.046 77.754 10.764 27.723 3.956 77.806 44.097 45.56 36.107 71.137 75.238 26.239 39.01 17.053 92.664-12.814 67.711-52.487 112.82-17.088 21.867-71.11 47.363-15.054 7.762-75.382 27.524-18.55 6.076-41.38 13.288h.013q-4.099 10.57-7.554 21.869 18.28-1.171 40.539-4.195l.013.001v-.002.001q28.169-3.828 62.714-10.623 71.661-16.561 107.18-43.153 42.659-27.402 74.348-91.95 26.908-58.751 23.455-110.013.024-57.677-55.135-122.427-82.528-85.967-143.927-105.199-27.4-8.807-62.491-11.637-35.557-2.02-70.492-2.02ZM1239.89-878.708h-.01.022Z" style="fill:#000;fill-opacity:1;stroke-linejoin:miter"/><path d="M790.693-1148.49q-91.455 0-181.924 39.276-79.746 33.819-163.904 104.139-14.798 12.364-29.731 25.857 5.395 2.7 10.652 5.87 11.723 6.59 30.772 21.582 12.51-9.158 25.57-18.125l-.072-.08h.005l.07.077q36.16-24.832 76.527-48.207 73.263-43.415 138.535-60.49 47.176-11.485 93.366-11.485 18.572 0 36.984 1.857 201.496 27.144 317.348 131.94 32.993 33.804 51.123 78.969h-.011l.012.001q3.548 8.84 6.528 18.117 4.796 14.533 8.766 31.737 2.456 10.647 4.597 22.318 14.03 124.197 16.27 124.197.29 0 .383-2.08h-.013l-.34.144q15.69-40.876 16.94-108.684.366-17.004-.9-33.749l.012.001-18.492-1.076v.001l18.48 1.072q-2.044-27.035-8.344-53.397h-.012.012q-2.374-9.933-5.351-19.77-24.425-86.112-113.72-149.06-107.39-70.582-267.64-96.383-31.306-4.57-62.498-4.57Z" style="fill:#000;fill-opacity:1;stroke-linejoin:miter"/><path d="M322.462-1043.036q-22.388 0-47.62 3.168-98.47 7.93-167.05 66.225-80.356 69.2-91.685 149.114Q4.874-772.01 26.56-683.001 51.04-598.754 90.3-559.068q49.406 57.191 145.542 63.849l2.015-14.957h.002l-2.017 14.957q5.32.368 10.78.582 4.817.188 9.742.256 1.241.017 2.488.027l1.767-13.115-1.767 13.115q1.563.012 3.133.012 8.63 0 17.593-.36v.001q3.1-.125 6.24-.292 1.626-20.344.99-38.65l-.567-.021q-14.922-.941-32.666-3.463h-.003q-8.3-1.18-17.22-2.706-58.039-10.048-90.748-41.213Q90.8-640.303 74.844-733.81 59.945-808.227 93.81-870.507q73.73-116.798 250.5-124.105 2.351-.067 4.683-.067 35.273 0 66.141 15.46h-.001q5.395 2.7 10.652 5.872 11.723 6.589 30.772 21.581v.001q.663.52 1.334 1.052 14.367 11.21 65.28 56.716l15.664 12.172q1.722 1.21 2.736 1.21.338 0 .597-.134.234.058.374.058.396 0 .078-.465l-.005.001q-.186.27-.445.405-.423-.107-1.148-.411 1.056-.947-.378-3.993l-15.11-26.737q-14.584-23.515-35.3-48.585-4.05-4.867-8.114-9.428h-.005q-18.48-20.746-37.247-35.17h-.004q-9.724-7.478-19.528-13.257-40.35-24.705-102.875-24.705Zm-71.06 522.777h.006l-.005.002v-.002Zm8.896 8.173Z" style="fill:#000;fill-opacity:1;stroke-linejoin:miter"/><path d="m247.904-658.803-.07.002.271 4.439q.547 9.523 1.199 15.492 3.666 31.94 4.291 41.405 1.264 13.959 1.318 25.838.04 19.243-1.34 34.5-.842 9.294-2.212 17.108-2.311 14.22-4.74 25.382 7.547.295 15.364.295 11.615 0 23.833-.651 1.626-20.344.99-38.65l-.567-.021.568.02q-.716-20.608-4.295-38.635-5.751-29.63-15.11-51.543-15.235-34.981-19.5-34.981ZM679.444 69.775q-20.721 0-32.901 2.413-35.545 8.36-70.305 30.348-50.121 32.708-71.192 58.833l1.504-.979q7.415-1.552 10.316-3.466l59.257-31.752q14.226-7.162 26.123-12.081 13.133-5.489 25.163-9.038l11.97-3.187 21.529-4.233q18.821-3.181 39.027-3.181 6.602 0 13.352.34 15.239.795 28.65 2.267 5.466.451 40.91 5.071l14.67 1.526q5.352.484 14.918.686h.036q.418 0 .39-.064l.123-.383h-.008q-.514.352-.63.352-.052 0-.025-.07l.778-.537-.124-.106q-.034-.088-.11-.088-.093 0-.247.129-.887-1.085-13.727-6.718-13.083-5.27-24.736-8.956-30.15-9.285-48.061-12.359-23.845-4.32-39.604-4.701-3.638-.066-7.046-.066ZM251.178-123.725q-.098 0-.128.23l-.02.05q-.4.083-.818 10.717l-.182 32.862q-.253 8.258-1.08 15.927-1.761 16.186-7.655 29.491-10.4 21.302-20.985 33.43-2.743 4.564-27.93 29.48-5.322 5.264-11.646 11.436 4.917 1.432 10.926 2.66 6.776-3.996 14.082-9.02h-.001.002q9.558-6.573 20.023-14.906 26.25-22.947 31.942-38.431 9.44-23.714 7.01-49.545-.662-11.372-4.805-29.042-2.051-8.424-4.785-16.185-3.331-9.154-3.95-9.154Z" style="fill:#000;fill-opacity:1;stroke-linejoin:miter"/><path d="m236.45 44.61-.08-.047-9.065-3.67q-29.865-9.972-35.127-12.529-11.833-5.247-17.053-9.161-7.003-4.677-13.496-12.436-20.431-28.467-25.467-33.001-9.897-9.368-17.23-11.812-32.086-9.53-65.97 13.488-20.916 14.47-29.496 38.309-11.075 36.837-8.904 67.411 4.062 48.87 55.41 82.781 34.289 19.99 71.154 11.014 33.106-9.62 59.647-46.577-6.633 3.178-29.514 16.693-10.358 5.563-14.446 7.129-15.126 6.161-27.343 5.987-31.844.204-58.612-25.433-14.03-13.655-21.92-31.665-5.936-12.23-6.155-30.723.6-23.32 7.83-47.334 6.14-16.1 19.587-24.668Q94.518-18.084 110.75-14q4.838 1.107 12.104 8.27 25.28 28.494 28.301 29.868 4.969 4.796 17.48 11.103 10.826 5.672 33.373 9.157 12.074 1.455 21.232 1.503 5.368.089 12.589-.502.246-.014.501-.083-1.024.137.12-.706M122.783-100.227l.018.008q-.278.632 3.053 1.035 16.87 2.205 17.607 2.573 3.395.703 6.716 1.83 7.97 2.517 13.939 10.007 10.613 14.479 14.515 29.99 1.496 6.096 1.678 11.886.248 4.993-.93 17.847 4.028-6.758 5.655-13.157 2.01-7.58 1.368-16.149-.498-8.136-3.761-18.04-3.888-10.7-6.907-14.104-9.49-12.374-20.971-14.97-6.49-1.754-14.247-1.497-3.672.017-9.82.938-3.568.553-6.764 1.459-1.64.404-1.314.778l.165-.434" style="fill:#000;fill-opacity:1;stroke-linejoin:miter"/><path d="m179.154-27.454.25-.106-.25.106 1.203.359q.792.126.694-.124l-.923-8.998q-1.435-11.084-3.726-16.764-3.121-10.087-12.678-18.815-5.909-5.158-13.333-7.79-.6-.035-.734.02-1.521.682-2.445.74-6.059-.673-13.044.512-3.494.454-10.12 3.245-6.319 2.927-11.786 7.588-4.575 3.593-12.545 12.723l-4.212 3.164q3.24-2.414 4.202-2.933.346-.264 3.529-1.514 11.078-4.323 17.495-5.536 9.046-2.18 18.762.747l2.497.913 1.982 2.342q9.358 1.155 15.565 6.418 5.555 3.56 18.825 24.941.074.373 2.133 1.086l-.191.082q.14.053-.081-.418l-1.069-1.988M-391.284 44.697l-.086.025q-9.69-11.112-35.62-28.887-19.934-13.38-40.049-21.812-18.148-7.193-32.31-8.737-8.83-.573-13.635.235-5.679.667-7.448 1.028-9.092 1.792-10.74 2.461-19.21 5.147-43.503 21.441-8.764 5.918-19.208 14.819-12.179 10.616-18.604 18.78l1.094-.7q4.911-.978 10.179-3.611l32.934-15.617q9.87-4.504 18.084-7.49 7.52-2.874 18.886-5.48 7.088-1.417 11.885-1.713 2.57-.364 8.006-.26 2.485-.098 7.602.522l4.89.153q7.333.533 8.57.81 6.605.557 24.48 5.755 11.293 3.606 22.265 8.18l40.668 17.157q7.593 2.777 11.879 4.059l-.219-1.118M-903.53-544.101q-29.068 0-60.4 30.222-47.6 45.481-62.998 161.439-12.804 125.997 9.264 269.76 21.86 138.177 57.81 210.423 21.72 44.65 54.5 87.016l-.008.001q.178.218.346.435h.01l-.01.002.649.833q5.257 6.571 10.15 12.486v.001l-.001.008q2.56 3.084 5.011 5.989c6.244-1.464 12.48-2.925 18.707-4.382q-6.765-10.99-12.565-20.596l-.009.001q-26.403-43.736-32.633-58.745-23.623-47.085-44.008-115.124-40.002-147.612-39.783-309.198.634-101.305 26.766-167.226 26.729-63.93 70.559-70.994 1.094.162 4.142.522l3.947 1.232q4.718 1.959 8.28 4.802 8.647 6.833 15.09 18.327 13.41 24.877 11.689 53.057-.76 21.24-10.732 38.288-4.723 9.69-33.884 20.023-8.33 5.771-5.035 18.08 2.56 5.155 7.234 7.992 23.6 11.607 38.027 20.37v.005q16.265 9.876 20.866 16.14 4.216 3.651 8.563 11.567 8.162 14.865 16.786 44.764 5.838-46.14-14.074-70.662l-.009.001q-.276-.352-.565-.697-5.802-9.34-28.743-25.74l-.008.002q-3.967-2.843-8.458-5.898 5.371-2.393 9.95-5.388 12.164-7.958 18.674-20.164 18.025-30.401 12.487-73.92-2.603-13.853-6.734-25.545h-.009q-14.294-40.482-46.912-55.078-10.799-4.431-21.928-4.431Zm17.024 172.872q.619 0 1.04.877-.654-.417-1.315-.836.142-.04.275-.04Z" style="fill:#000;fill-opacity:1;stroke-linejoin:miter"/><path d="M-688.324-646.23q-4.576 0-9.432.475-41.244 6.233-80.368 49.148-32.731 37.167-52.519 98.842-2.072 6.441-4.046 13.173-15.067 51.38-24.418 119.629l-.01.006q-.756 5.583-1.482 11.279-.56 4.384-1.096 8.835-.89 7.964-1.72 15.791 16.265 9.876 20.866 16.14 4.216 3.651 8.563 11.567 1.29-13.298 2.704-25.897l-.007-.009.008.001q9.727-86.712 25.232-140.283 27.163-104.907 92.873-140 14.475-6.556 25.841-6.556 14.795 0 24.32 11.107 4.98 5.604 6.309 19.75v.002l-.006.004q1.344 14.261-1.028 37.2v.001l-.007.005q-.502 4.91-1.18 10.218-5.472 42.633-24.588 68.04-3.822 5.05-9.455 10.3-4.957 4.621-11.317 9.399-.159.45-2.595 2.152-8.67 6.055-46.182 27.949l-6.09 4.218q-.396.35-.372.628 27.613-3.461 50.272-12.893v-.003h.008q8.793-3.661 16.84-8.221v-.004l.008.001q10.337-5.86 19.444-13.202 29.749-26.433 41.07-74.179 6.95-28.996 7.636-50.583l-.006.001q.655-20.384-4.279-34.16l-.006.001q-1.694-4.747-4.056-8.71-18.678-31.162-55.73-31.162Z" style="fill:#000;fill-opacity:1;stroke-linejoin:miter"/><path d="m-759.533-413.115-.63.078-.029.112 1.088.274q-.398-.2-.422-.464ZM-693.314-488.023l.003.032.024-.006-.02-.026ZM-693.337-488.141q-.007 0-.012.064l.034.044q-.013-.108-.022-.108ZM-692.97-457.462q-4.957 4.621-11.317 9.399-.159.45-2.595 2.152-1.553 9.077-2.364 19.899h.002-.002q-.914 12.192-.879 26.598.185 13.402.482 16.893l2.29 13.843 1.61 9.012q6.7 35.373 13.261 57.784 4.36 14.936 7.611 20.93.007.011.012.011.06 0-.166-1.506 1.378-5.79 1.28-6.96.422-7.576.27-17.129-.149-11.569-.78-24.137l-2.735-53.77q-.145-1.968-.428-4.113-2.041-14.332-3.076-23.124-.754-5.55-1.874-21.97l-.03-.585-.007.001q-.285-5.675-.495-13.648-.054-4.742-.063-9.58ZM-492.47-656.769q-33.541 0-75.379 16.299-29.5 10.927-60.691 34.112l.002.008h-.006q-13.923 10.345-28.174 23.13 1.35 14.26-1.022 37.194 10.927-8.987 25.441-20.044 3.842-3.072 8.044-6.129v-.001l.001.001q25.869-18.82 65.36-37.042 37.15-15.135 65.049-15.135 18.512 0 32.95 6.664 25.368 15.337 30.714 53.869 1.813 27.385-22.52 66.988-18.494 28.295-44.66 42.416-7.315 4.286-24.317 10.597-3.868 1.897-52.463 15.513-4.71 1.531-8.825 3.166-1.06.378-.856.862-.261-.067-.515-.135h-.006l.805.474q-.212-.174-.282-.336l.006.001q7.372 1.867 20.7 1.867 11.261 0 26.779-1.334 20.844-1.76 44.369-9.578 38.555-15.024 61.391-45.635 60.755-77.414 8.69-147.392-19.905-25.046-56.36-29.626-6.915-.774-14.224-.774ZM-584.52-424.536l.053.064.108.03-.16-.094ZM-698.3-999.728l.022-.092.004-.02-.01.045.007.017.028.016.044.016.056.014q.133.03.269.047.055.01.43.048l.064.01.052.013q.047.014.075.031.051.033.067.062h.003l.006-.018q-.007-.064-1.117-.189" style="fill:#000;fill-opacity:1;stroke-linejoin:miter"/><path d="M-523.827-443.015q-4.828 1.67-19.046 5.8-1.256 6.907-2.507 14.139h-.005q-7.155 41.418-13.942 93.506-2.763 11.483 7.72 25.697 10.75 10.736 18.37 10.736h.055q39.036-41.632 77.951-41.632 1.252 0 2.504.043 1.072-.012 2.142-.012 46.882 0 90.032 23.456 48.791 26.807 84.293 85.522 32.268 54.834 21.251 96.886-6.265 21.9-32.426 21.9-8.45 0-18.975-2.284-45.85-12.415-86.862-52.146-30.875-31.74-36.69-59.54-6.065-20.093 1.073-78.49l-.004.001q-22.68 40.917-20.523 78.98 2.012 32.832 27.906 68.125 55.638 68.525 120.297 76.793 7.122.866 13.65.866 21.571 0 36.635-9.461 21.954-13.89 28.782-42.656 10.284-51.943-25.325-113.647-40.742-67.784-96.227-98.385-53.187-28.2-103.997-28.2-8.642 0-17.215.816-36.366 4.415-65.295 26.682.496-2.467.989-5.215 2.611-10.922 5.004-80.527h-.005q.185-5.251.365-10.836l.03-6.917Z" style="fill:#000;fill-opacity:1;stroke-linejoin:miter"/><path d="M-392.286-147.259q.547.16 1.094.317l-1.094-.317M-528.334-194.005q10.413 10.639 14.78 13.747 8.787 6.797 18.044 10.846 6.85 3.279 18.633 6.015 7.224 1.688 18.301 2.273 5.245.225 8.776.225 4.706 0 6.368-.4 6.98-1.121 14.027-2.602l-.026-.041.005.001.025.039q9.817-2.064 19.762-4.827 3.915-1.1 7.587-2.198-5.535-6.369-10.025-12.573h-.004q-13.385 1.206-17.138 1.395-4.029.311-9.828.577l-.004.001q-3.925.178-8.655.336-8.055.993-13.615 1.458-4.23.342-8.988.342-2.005 0-4.104-.06-11.005-.44-21.37-3.124-6.423-1.78-10.559-3.193l-18.875-6.906-3.112-1.331ZM-338.162-121.418q-8.431 1.215-18.982 3.078-15.01 2.583-26.486 4.826-25.686 5.02-33.683 8.333-31.507 10.344-49.96 33.593-1.939 2.64-3.774 5.405h.005q-3.094 4.656-5.89 9.668-9.812 17.586-16.016 39.559-.446 1.52-.878 3.033v.001q-3.451 12.089-6.049 23.747l.949.03q7.332.532 8.568.808.88.075 1.959.231 4.804-12.587 8.363-21.454h-.004.005q6.773-16.88 9.029-20.283 2.883-6.003 5.965-11.36 1.728-3.003 3.519-5.802l-6.528-12.226 6.528 12.226q8.369-13.086 18.11-21.742 9.612-9.088 31.44-18.908 5.24-2.238 14.378-5.31 16.228-4.918 28.34-8.644-.782-.54-1.562-1.09l.004.001q.78.55 1.561 1.089 29.262-9.003 34.485-11.041 4.12-1.431 7.61-2.726-5.537-2.312-11.003-5.042Z" style="fill:#000;fill-opacity:1;stroke-linejoin:miter"/><path d="M-495.64-182.536q-1.098 5.694-2.144 12.086-.375 2.289-.743 4.667-4.079 28.5-2.995 46.967 2.596 24.896 13.955 45.576 5.022 8.967 10.64 16.714l-.003.007q5.648 7.773 11.89 14.316 1.727-3.003 3.518-5.802l-6.528-12.226q-1.528-2.905-2.991-5.953h-.001l-.005.002q-1.524-3.188-2.982-6.531-5.589-12.29-8.653-27.255-1.13-5.486-1.816-12.998l-1.482-16.292-.494-8.366q-.38-9.069-.283-19.393.039-3.91.137-8.994l-.005-.001h.005q.123-6.375.338-14.594-4.737-.743-9.353-1.93ZM.318 290.395q17.835 16.586 104.164 60.693 80.104 37.268 121.314 51.431 109.731 41.535 207.638 41.535.757 0 1.513-.003h.152q34.278 0 82.605-10.154 33.82-8.156 61.01-17.413v.001q8.035-2.737 15.492-5.569v-.001h.003q10.542-4.005 19.927-8.202 25.752-11.331 49.158-22.864l1.059-21.247-23.27 11.607q-23.232 10.766-39.375 17.501v.003l-.006.001q-9.912 4.134-17.15 6.75l-.001.005-.006.001q-2.28.82-4.29 1.493-79.507 29.091-147.087 29.487-23.522-.37-32.689-.986-32.96-3.036-40.115-4.684-26.246-2.807-94.22-23.091-42.423-13.956-73.946-27.136L51.69 308.86q-16.756-6.974-28.29-11.071l-16.633-5.715q-5.235-1.648-6.448-1.679ZM743.403 316.129Q736 320.12 727.6 324.664q-22.511 12.172-52.186 28.291l-2.896 1.573-8.165 4.074-1.052 21.243q3.35-1.65 6.653-3.306l.001-.004.007.001q32.356-16.217 60.096-32.83 7.434-4.451 14.537-8.932-.42-9.365-1.184-18.645ZM.143 290.402q-.294.035-.135.252l.135-.252ZM.203 290.288l-.06.114q.057-.007.13-.007h.045l-.115-.107ZM.044 290.138l.16.15.06-.114-.22-.036Z" style="fill:#000;fill-opacity:1;stroke-linejoin:miter"/><path d="M628.31 175.141q-2.186 0-4.41.073-23.958 2.034-42.806 20.406-22.599 24.325-28.17 49.108-3.109 16.251 1.09 30.531.898 4.32 5.855 15.31 18.292 34.69 20.604 41.811 7.55 20.367 7.25 32.119.368 13.873-3.158 29.96v.002l-.013.003q-.466 2.18-1.016 4.4-.885 4.626-4.823 17.62 8.036-2.736 15.493-5.568 4.827-12.444 7.51-23.206l-.014.001q3.072-12.267 3.357-22.347.825-16.738-5.121-34.103-1.083-6.662-24.43-51.28l-3.663-10.148q-2.8-9.047-.726-21.09 2.36-13.582 17.176-33.316 9.606-12.925 25.605-19.158 1.57-1.061 11.938-2.535 3.365-.288 6.325-.288 2.157 0 4.098.153 14.793 1.322 25.957 6.424 25.692 11.937 39.75 36.398 11.368 18.8 17.875 46.335 4.196 17.726 7.62 40.733l.15 1.167v.001l-.013.007 2.458 19.042q7.434-4.451 14.537-8.932-.42-9.365-1.184-18.645-6.445 3.472-13.638 7.36 7.191-3.887 13.628-7.36-.535-6.61-1.25-13.175-4.256-36.903-19.502-67.626-31.682-60.187-94.339-60.187Z" style="fill:#000;fill-opacity:1;stroke-linejoin:miter"/><path d="m633.024 253.08.24.517q1.344 2.99 2.988 6.168 14.385 25.062 16.9 31.022 5.241 11.185 7.536 21.328 2.73 14.324 2.957 16.698.82 6.413.959 12.299.193 5.702-.05 13.429l-.201 4.06-.001.017-.171 3.453-.88 17.774q3.35-1.65 6.653-3.306 2.954-9.83 5.326-22.702l.14-.882-.006.001q1.827-11.526 1.967-19.115.217-6.064-.189-11.264-.16-2.634-.988-7.182-5.265-19.428-16.292-34.225-7.034-9.716-14.122-17.121-10.172-10.526-12.76-10.97ZM1335.83 105.212l-.023.095q.82 1.193 5.197-10.261 2.227-6.845 2.292-11.126.366-9.602-5.956-15.213-15.349-11.916-45.505-1.795-32.303 12.652-55.216 37.425-18.69 18.473-26.982 47.126-6.523 27.35 24.518 26.771-17.221-7.72-16.966-12.984-1.296-8.53 12.48-29.35 9.914-14.415 27.333-27.778 23.898-18.289 27.392-20.05 3.88-2.607 11.29-6.53 6.11-2.93 7.83-3.478 19.563-6.961 29.05-.701 2.222 1.281 3.384 7.864.65 1.387-.124 19.163-.07 1.136.629 1.005.09.134-.623-.183" style="fill:#000;fill-opacity:1;stroke-linejoin:miter"/><path d="M1251.757 90.118q-5.53 4.5-10.631 9.554h.012q6.183 4.07 14.1 9.259l.383.261v.001l-.006.004h.013q6.914 4.732 11.62 8.324l17.59 14.268q2.681 2.29 6.387 7.227 5.326 7.395 6.046 17.945.27 3.434-.274 10.791l-3.031 24.659q-.012.347.029.578h-.013l-.031.035.037-.005.013.001q.033.17.097.272.003-.121.336-.121.176 0 .444.034l-.184-.236-.023-.04h-.013l.477-.065q3.465-5.33 5.795-9.827 3.042-5.975 4.94-11.209 3.26-8.408 4.051-18.016.955-18.076-11.697-33.632-4.348-5.62-11.795-11.93-8.46-5.446-16.737-9.745h-.012.007l.005.001q-1.846-.96-3.683-1.862-7.377-3.531-14.24-6.526ZM1294.106 193.322q.012.042.054.094.076.03.161.03h.03q.084 0 .178-.034h-.013q-.09.03-.172.034-.137-.006-.225-.124Z" style="fill:#000;fill-opacity:1;stroke-linejoin:miter"/><path d="m1229.649 258.589-.206-.101q-1.73-.004 1.17 1.395l7.36 2.927 18.904 5.672q26.788 6.246 37.161 6.847 30.686 3.947 58.374-4.286 49.681-16.217 80.1-75.32 29.083-60.448 10.66-127.62-22.966-77.567-73.106-101.325-34.09-16.914-85.005-12.25-47.412 4.486-87.472 27.552-64.251 36.915-130.26 157.153-2.612 5.474-3.955 10.49l8.95-7.139 68.154-75.918q20.152-21.39 34.071-33.207 29.04-24.152 53.06-34.869 29.787-14.633 77.23-16.637 42.323.347 64.947 17.726 36.353 28.058 49.32 91.186 9.091 56.408-15.72 99.224-21.379 41.44-59.566 59.494-12.69 6.037-40.48 8.437-10.115 1.209-60.233-.244l-11.995.491q-2.397.169-1.706 1.02-.91.027.243-.698" style="fill:#000;fill-opacity:1;stroke-linejoin:miter"/><path d="m1332.795-29.53.031.023q.37.207.438-1.243.242-5.127-.072-11.483-.086-5.386-2.071-18.77-4.024-20.433-9.014-30.376-6.01-12.601-9.636-16.617-10.815-11.827-23.672-20.653-18.23-13.148-42.848-22.323l.729.527q.77 1.635 8.173 8.854 26.026 24.04 29.776 28.453 6.96 6.95 19.636 24.295 6.368 8.987 10.882 18.661l3.507 7.857 10.848 27.38 2.814 6.054q.427 1.033.479-.638M992.941-360.762q-7.573 9.693-14.443 19.368-13.538 19.066-24.345 38.062-35.475 62.816-38.374 134.07-1.12 33.576 5.86 66.677 5.101 22.804 10.634 39.243v.001l-.006.01q5.167 15.32 10.699 25.11l.189.333q.055-.39.101-.814h-.01l.003-.017q.558-5.09-.2-15.19-1.292-13.398-2.251-23.887l-.01.001q-2.876-31.532-2.761-36.782-.682-10.46-.003-30.761.663-31.29 13.392-76.382 8.417-32.244 33.43-81.946 5.92-11.539 16.982-29.884h.008l-.008-.001h.007a.03.03 0 0 0-.008-.003l.003.001q5.513-9.146 12.304-19.981h.01l-.01-.001h.008a1463.653 1463.653 0 0 0-21.191-7.227Z" style="fill:#000;fill-opacity:1;stroke-linejoin:miter"/><path d="M1000.488-144.834q-.25 0-.646.038l.009-.02-.01.001q-10.466 3.561-20.24 13.35-5.474 5.543-10.704 11.993-5.1 6.292-9.97 13.447-.685.975-1.387 1.991-7.46 10.802-16.752 26.238-4.083 6.785-8.52 14.464 5.166 15.32 10.698 25.11l.28-.477.003-.02.01.001 5.304-9.035 15.704-33.673q.008-.006.006-.012l.005-.011v.001l3.929-8.425q4.1-8.506 6.558-13.484v-.002.002q2.655-5.378 3.393-6.641 10.062-20.086 22.526-34.484.562-.352-.196-.352Z" style="fill:#000;fill-opacity:1;stroke-linejoin:miter"/><path d="M968.897-119.472q-5.1 6.292-9.97 13.447-.685.975-1.387 1.991.038.087.058.175 2.143 10.337 6.68 22.41l3.929-8.424-3.929 8.425-.005.01q8.803 23.394 26.588 53.305 13.567 22.267 27.745 40.6 10.986 13.155 20.823 23.132 28.793 28.825 59.466 50.744v.001l-.004.006h.012q7.357 5.256 14.822 10.116l11.404-12.703-15.206-13.688h-.012l-5.317-4.797q-12.79-11.812-28.878-28.648-18.038-18.2-64.528-78.685-23.882-33.126-35.865-60.09-.268-.578-.547-1.213h-.011q-2.492-5.701-5.858-16.114ZM-223.46 962.252q-.11.002-.383.352l-.306.274q-.112.087-.136.18-.012-.003-.026-.003-.214 0-.572.738l-32.328 47.274q-3.872 5.305-25.817 39.253-17.27 27.078-33.34 53.743-5.499 9.124-10.857 18.2c1.081 1.104 2.159 2.208 3.237 3.312 4.422 4.529 4.334 11.784-.194 16.206a11.422 11.422 0 0 1-8.005 3.26c-1.279 0-2.557-.213-3.777-.638l-23.351 44.556a11.46 11.46 0 0 0 1.403 12.722l10.221 12.076q6.264-10.75 13.956-24.24l31.297-59.72-31.256 59.647q3.242-5.685 6.736-11.856 31.705-57.435 64.084-125.394 15.84-33.214 24.769-53.66 15.76-36.264 14.648-36.282Z" style="fill:#000;fill-opacity:1;stroke-linejoin:miter"/><path d="M-328.527 1124.47q-5.38 9.136-10.617 18.223c.982.748 2.055 1.319 3.177 1.71l9.387-17.915c-.646-.672-1.295-1.345-1.944-2.017ZM-136.58 465.354q-6.54 22.26-12.4 51.42-1.423 8.397-2.557 16.49h.003l-.001.001q-6.978 49.789-2.997 88.087 9.083 98.438 71.463 228.08Q-19.09 975.139 53.14 1057.03q9.97 11.303 20.096 21.771v.001q2.79 2.883 5.59 5.702 87.815 95.342 214.328 169.647l1.94.534-11.965-15.981Q82.097 1055.674 62.442 1023.328-.534 949.904-57.262 837.318q-47.456-94.03-65.825-194.458-7.116-48.07-6.58-88.111l-.007-.125-.001-.004.001.001q-.762-13.595 3.523-56.283a827.907 827.907 0 0 1-10.428-32.984ZM1617.25 559.574q-27.335 0-54.35 11.857-42.516 18.38-41.062 25.103-47.074 152.111-122.845 230.418-96.061 105.683-218.696 184.609-105.752 71.613-282.298 140.972-102.517 38.572-190.57 61.668l-286.58 67.29-16.943 7.195q6.881 2.017 19.128 2.017 10.783 0 25.726-1.564 99.748-5.298 232.147-38.697l.001-.002h.007q15.204-3.836 30.839-8.042l.001-.002h.007q47.747-12.845 99.508-29.146 212.773-70.011 358.65-161.313 153.472-96.736 248.115-203.493 83.786-87.905 127.992-237.757h.016q.076.12.29.12.344 0 1.048-.314l28.005-13.401q21.76-9.015 42.862-9.015 22.068 0 43.416 9.858 26.214 11.372 45.289 23.06 2.653.675 36.505 22.803l-.002.01.018.001q18.458 12.064 46.187 30.505c.805-5.924 1.565-11.847 2.28-17.767h.016l-.016-.001h.017q-13.76-12.33-31.515-27.302-20.161-16.702-38.948-29.588h-.002q-23.132-15.868-44.181-25.951-30.221-14.13-60.062-14.13Zm127.472 72.863h-.008l.008.001-.017.001h.002l.007-.001h-.009Z" style="fill:#000;fill-opacity:1;stroke-linejoin:miter"/><path d="m713.56 1239.174-.077.132.073-.132ZM1375.704 260.479h-.001l.944-12.111c21.242 40.714 43.873 83.788 48.952 130.325 5.112 46.836-7.566 95.86-29.136 145.142-21.738 49.666-53.124 100.967-110.842 154.671-57.48 53.48-140.934 109.217-241.181 152.966-100.251 43.75-217.194 75.464-346.416 101.757-129.23 26.294-271.225 47.257-412.833 68.167a11.46 11.46 0 0 1-7.806-1.656C173.925 934.22 68.587 867.624-16.47 756.434-101.26 645.599-165.79 490.64-181.198 365.431c-15.503-125.973 18.695-221.624 59.809-286.105C-80.185 14.704-32.125-18.4 14.245-50.432L10.4-45.904c30.749-64.988 61.793-130.625 101.655-195.083C151.888-305.4 200.419-368.46 248.5-430.952l-2.255 5.32 14.347-97.484c.922-6.262 6.745-10.591 13.007-9.67 6.261.922 10.59 6.746 9.669 13.007l-14.347 97.484a11.46 11.46 0 0 1-2.255 5.32c-48.23 62.684-96.01 124.801-135.118 188.042C92.467-165.735 61.942-101.248 31.118-36.102a11.457 11.457 0 0 1-3.846 4.528C-18.99.383-63.563 31.266-102.063 91.648c-38.59 60.52-71.167 150.887-56.387 270.983 14.873 120.859 77.68 272.03 160.183 379.877 82.233 107.498 184.132 172.144 287.915 237.869l-7.805-1.656c141.75-20.93 283.103-41.805 411.611-67.951 128.508-26.148 243.682-57.477 341.818-100.304 98.141-42.83 179.352-97.208 234.736-148.74 55.143-51.308 84.814-99.914 105.458-147.082 20.813-47.551 31.843-92.288 27.349-133.464-4.527-41.479-24.812-80.662-46.489-122.21a11.46 11.46 0 0 1 .944-12.112c3.762-5.09 10.937-6.168 16.027-2.406 5.09 3.761 6.168 10.937 2.407 16.027Z" style="fill:#000;fill-opacity:1;stroke-linejoin:miter"/><path d="m261.537-404.246-1.074-22.888.865-.019h.001c195.646-4.262 392.81-8.552 563.286 22.698 171 31.345 314.721 98.355 457.039 164.652 5.737 2.673 8.222 9.49 5.549 15.228-2.673 5.737-9.49 8.221-15.227 5.548-142.597-66.427-283.793-132.143-451.493-162.884-167.728-30.746-362.39-26.603-558.654-22.327l-.865.019c-6.217.135-11.407-4.71-11.698-10.921-.291-6.21 4.423-11.52 10.624-11.967 6.314-.455 11.8 4.294 12.255 10.607.454 6.313-4.295 11.799-10.608 12.254ZM1383.704 262.257l14.648-16.327c10.966 18.075 22.725 37.37 30.289 61.113 7.486 23.501 10.728 50.988 13.837 77.027l-10.06-10.025c55.82 6.472 114.807 13.124 171.192 54.993 55.452 41.177 107.805 116.174 158.607 188.724 3.63 5.184 2.37 12.33-2.814 15.96-5.185 3.63-12.33 2.37-15.96-2.814-51.628-73.728-101.706-145.01-153.497-183.468-50.86-37.766-103.93-44.107-160.167-50.628a11.46 11.46 0 0 1-10.06-10.025c-3.177-26.61-6.221-51.77-12.917-72.787-6.618-20.775-16.934-37.868-28.045-56.182a11.46 11.46 0 0 1 14.648-16.327c5.735 2.68 8.211 9.5 5.533 15.234-2.68 5.734-9.5 8.21-15.234 5.532Z" style="fill:#000;fill-opacity:1;stroke-linejoin:miter"/><path d="M1757.633 608.593a11.46 11.46 0 0 1-9.83-4.89c-45.78-65.538-90.085-128.731-142.723-166.496-52.27-37.5-113.495-50.383-177.557-63.696-6.197-1.287-10.176-7.355-8.889-13.552 1.288-6.196 7.355-10.176 13.552-8.888 63.287 13.15 129.41 26.73 186.255 67.513 56.476 40.519 103.052 107.43 148.152 171.995l-9.83-4.89h.001c6.325-.24 11.647 4.693 11.887 11.017.24 6.325-4.693 11.647-11.018 11.887ZM260.298-512.087c.42 1.502.529 3.073.32 4.618l-10.955 81.35a11.462 11.462 0 0 1-2.563 5.817c-40.795 48.83-81.065 97.052-119.11 158.227-38.137 61.324-74.146 135.827-110.5 211.071a11.459 11.459 0 0 1-2.785 3.651c-79.231 69.11-154.76 135.45-179.969 227.811-25.397 93.053-.303 213.994 25.935 339.035a11.46 11.46 0 0 1-20.037 9.668v.002l-.187-.227-.001-.001c-21.524-25.957-43.918-52.936-60.713-84.34-16.814-31.438-27.829-66.965-38.476-101.189a11.46 11.46 0 0 1 9.018-14.701l41.813-7.123-8.678 15.647-.196-.478c-13.513-32.93-27.335-66.638-37.209-104.258-9.898-37.711-15.768-79.137-21.533-119.726l11.85 9.837-54.098 2.38a11.46 11.46 0 0 1-11.307-7.627c-8.747-24.73-18.7-52.334-16.293-81.035 1.557-18.552 8.247-37.037 13.766-52.453 3.064-8.557 5.76-16.117 7.553-22.958 4.954-18.91 3.156-33.056 1.052-49.038-.826-6.275 3.59-12.031 9.866-12.858 6.275-.826 12.031 3.591 12.858 9.866 2.134 16.209 4.575 34.252-1.605 57.84-2.096 8-5.17 16.561-8.145 24.873-5.73 16.005-11.244 31.61-12.505 46.644-1.924 22.925 5.965 45.761 15.06 71.476l-11.307-7.627 54.098-2.38a11.46 11.46 0 0 1 11.85 9.837c5.806 40.883 11.51 80.938 21.01 117.13 9.429 35.929 22.666 68.29 36.243 101.376l.196.48a11.459 11.459 0 0 1-8.677 15.647l-41.813 7.122 9.018-14.702c10.781 34.654 21.199 68.016 36.802 97.189 15.529 29.035 36.387 54.28 58.145 80.519v-.001l.187.227-20.036 9.67c-25.822-123.058-52.788-250.22-25.615-349.778C-160.012 74.173-78.335 3.388-.362-64.625l-2.785 3.65c36.212-74.951 72.766-150.64 111.675-213.204 39-62.713 80.253-112.067 120.983-160.818l-2.563 5.818 10.956-81.35.321 4.617c-1.705-6.095 1.854-12.418 7.95-14.123 6.094-1.705 12.418 1.853 14.123 7.948ZM701.87 1244.941l11.686-5.767-.106.19-.002.003c-28.314 50.873-57.818 104.026-125.64 146.866-67.08 42.373-172.078 74.929-273.201 57.15-100.806-17.725-197.186-85.484-240.116-160.276-31.3-54.528-33.674-111.823-28.543-168.073 1.997-21.902 5.16-43.882 8.27-65.512.901-6.265 6.71-10.613 12.975-9.712 6.265.9 10.613 6.71 9.712 12.974-3.125 21.733-6.198 43.123-8.132 64.332-4.96 54.38-2.26 106.053 25.596 154.581 39.277 68.429 129.548 132.469 224.207 149.112 94.34 16.587 193.62-13.924 256.992-53.954 62.47-39.459 89.613-87.895 117.853-138.634l-.002.003.106-.19a11.461 11.461 0 0 1 11.687-5.768c6.262.923 10.59 6.747 9.667 13.009-.923 6.261-6.747 10.59-13.009 9.666Z" style="fill:#000;fill-opacity:1;stroke-linejoin:miter"/><path d="M469.08 1419.368a11.457 11.457 0 0 1 1.882 3.692l.001.001.049.165v-.002c20.863 69.92 40.795 135.425 104.533 180.34 65.16 45.919 176.608 71.087 291.772 96.873l-13.939 11.935-.027-.404v-.001c-6.125-93.4-12.267-183.159-45.74-247.016-33.227-63.388-94.06-102.287-158.286-143.03-5.344-3.39-6.928-10.472-3.538-15.816 3.39-5.345 10.472-6.929 15.816-3.538 63.18 40.08 129.752 82.004 166.308 151.743 36.208 69.075 42.293 164.4 48.311 256.157v-.002l.027.403a11.46 11.46 0 0 1-13.94 11.935c-113.232-25.354-230.182-51.326-299.967-100.503-71.1-50.104-92.7-123.504-113.293-192.523l-.001-.002-.049-.164 1.883 3.693c-3.848-5.026-2.894-12.219 2.131-16.067 5.025-3.848 12.218-2.894 16.066 2.131ZM160.358 1363.212l-.119.135-.002.003-.136.153.002-.002c-45.743 51.548-93.696 105.834-180.536 127.618-85.403 21.423-208.027 11.087-327.588 1.15a11.46 11.46 0 0 1-9.785-15.433c35.747-95.622 72.77-195.553 141.945-253.204 69.331-57.783 169.594-72.02 265.266-85.93 6.263-.91 12.079 3.429 12.99 9.692.91 6.264-3.43 12.08-9.693 12.99-97.552 14.182-190.513 28.035-253.89 80.855-63.533 52.95-98.704 146.132-135.15 243.623l-9.785-15.434c121.166 10.07 239.27 19.739 320.113-.54 79.242-19.878 123.039-68.84 168.97-120.6l.002-.002.136-.154-.12.138v-.001c4.127-4.8 11.362-5.345 16.161-1.218 4.8 4.126 5.345 11.362 1.219 16.16ZM1284.934-34.086l62.589-1.211q6.793-42.405 7.227-65.106.252-9.1-.277-18.001l-.773-8.838q-.992-8.781-3.058-17.287-2.098-8.497-5.27-16.72-1.061-4.245-11.442-24.17-10.845-19.808-36.376-53.918l-11.26 131.488-1.36 73.763" style="fill:#000;fill-opacity:1;stroke-linejoin:miter"/><path d="M-313.505 101.674c-.425 0-.854.024-1.287.072-69.178 7.734-138.634 15.498-241.056 35.265-102.218 19.727-237.283 51.417-371.99 83.022a11.46 11.46 0 0 0-8.733 12.734c5.203 37.462 10.504 75.738 23.425 119.504 12.812 43.394 33.065 91.99 53.013 139.843l.001.002.23.55a11.464 11.464 0 0 0 10.576 7.052c1.181 0 2.381-.184 3.56-.57l45.086-14.734h.008c76.753 129.634 153.918 259.46 233.2 366.803 79.113 107.112 160.235 191.707 240.895 275.27h-.003l-32.735 62.472a11.46 11.46 0 0 0 1.403 12.722l84.417 99.736a11.46 11.46 0 0 0 19.861-4.61 11.445 11.445 0 0 0-2.365-10.197h-.002l-79.432-93.847 32.995-62.966a11.46 11.46 0 0 0-1.906-13.279c-82.625-85.587-164.715-170.637-244.69-278.918-80.07-108.407-158.145-240.257-236.6-372.774a11.462 11.462 0 0 0-13.421-5.055l-43.765 14.302c-18.727-44.978-36.744-89.003-48.344-128.292-11.24-38.068-16.489-71.83-21.263-105.82h-.009c131.447-30.837 261.819-61.318 360.931-80.446 101.497-19.588 170.21-27.271 239.26-34.991 6.29-.703 10.819-6.373 10.115-12.663-.655-5.857-5.616-10.187-11.375-10.187Z" style="fill:#000;fill-opacity:1;stroke-linejoin:miter"/><path d="M-281.164-90.64a11.46 11.46 0 0 1 4.192 7.928c1.327 15.701 2.828 32.94-3.203 55.964-2.383 9.097-5.925 19.014-9.312 28.519-3.62 10.163-7.106 19.967-9.504 29.123-.949 3.62-1.7 7.04-2.21 10.24-2.965 18.542 1.536 32.82 6.977 49.56l-11.088-7.916 59.078-.976a11.46 11.46 0 0 1 11.557 10.002c5.061 39.513 10.05 78.397 18.267 115.374 8.21 36.95 19.683 72.172 31.36 107.99l-.449-1.157 11.56 25.646a11.46 11.46 0 0 1-8.451 15.994l-43.933 7.772 8.449-15.999c27.116 60.089 52.63 116.322 58.473 123.495 2.235 2.744-1.783-4.25-9.386-2.956l.882-.115-.905.119a11.14 11.14 0 0 0-5.42 2.574c-4.782 4.164-3.5 10.199-3.647 7.525-.5-9.046-18.824-65.69-38.557-126.256-1.96-6.017 1.328-12.485 7.346-14.446 6.018-1.96 12.486 1.328 14.446 7.346 18.762 57.583 38.931 119.085 39.65 132.093-.043-.774 1.067 6.448-4.187 11.023a11.782 11.782 0 0 1-5.737 2.728l-.906.119.882-.115c-8.225 1.4-13.2-6.354-12.231-5.164-8.348-10.248-35.773-71.323-61.594-128.542a11.46 11.46 0 0 1 8.449-15.998l43.933-7.772-8.451 15.994-11.56-25.647c-.17-.377-.32-.763-.448-1.157-11.625-35.66-23.453-71.919-31.942-110.122-8.483-38.177-13.591-78.12-18.627-117.434l11.556 10.002-59.078.977a11.46 11.46 0 0 1-11.089-7.916c-5.4-16.617-11.74-35.696-7.812-60.263.657-4.111 1.584-8.28 2.671-12.43 2.695-10.288 6.539-21.052 10.086-31.008 3.474-9.752 6.647-18.68 8.73-26.634 4.966-18.96 3.838-32.823 2.536-48.225l4.193 7.928c-4.912-3.991-5.659-11.209-1.667-16.12 3.991-4.913 11.209-5.659 16.12-1.668ZM-898.082 217.929a11.46 11.46 0 0 1-4.719 19.847l-36.258 8.867 8.697-12.089c3.237 38.608 6.409 76.098 20.36 121.094 14.072 45.378 39.153 98.595 64.745 152.839l-14.555-5.776 52.757-20.73a11.46 11.46 0 0 1 14.076 4.869c77.842 132.734 155.29 264.771 233.316 371.022 77.911 106.095 156.514 186.623 235.675 267.703 4.422 4.529 4.334 11.784-.194 16.206-4.529 4.421-11.784 4.334-16.206-.194-79.105-81.024-158.769-162.599-237.75-270.149-78.865-107.394-156.935-240.542-234.612-372.994l14.077 4.87-52.757 20.729a11.46 11.46 0 0 1-14.555-5.777c-25.373-53.777-51.259-108.588-65.908-155.83-14.767-47.625-18.071-87.357-21.308-125.967a11.46 11.46 0 0 1 8.697-12.09l36.259-8.866-4.72 19.847c-4.813-4.11-5.383-11.344-1.273-16.157 4.11-4.814 11.343-5.384 16.156-1.274Z" style="fill:#000;fill-opacity:1;stroke-linejoin:miter"/><path d="M-783.698 478.66v.001l-11.77-18.449c110.244-30.052 220.727-60.17 313.027-82.296 92.378-22.146 166.506-36.28 240.395-50.368 6.217-1.185 12.218 2.894 13.403 9.11 1.186 6.218-2.893 12.219-9.11 13.404-73.886 14.089-147.54 28.134-239.345 50.142-91.887 22.028-201.992 52.04-312.343 82.121a11.46 11.46 0 0 1-11.77-18.449c4.083-4.837 11.313-5.447 16.15-1.364 4.835 4.082 5.446 11.313 1.363 16.149ZM639.438-137.827c-73.552 0-135.363 57.246-140.016 131.666-3.1 49.557 19.899 94.714 57.16 122.062v.001l-.002.001a140.629 140.629 0 0 0 16.945 10.66l2.598-1.391q3.055-1.538 6.002-2.972a132.445 132.445 0 0 1-18.78-11.025l-.006.001c-36.46-25.655-59.136-69.09-56.15-116.851 4.396-70.295 62.78-124.368 132.256-124.368 2.785 0 5.587.087 8.405.263 73.112 4.571 128.676 67.547 124.105 140.66-1.6 25.581-10.349 49.014-24.18 68.474-4.03 5.669-8.49 11-13.33 15.95q3.818.352 7.491.755.803.067 2.254.223A140.736 140.736 0 0 0 755.763 81.5l-.006-.002.008.001c13.693-20.126 22.328-44.077 23.958-70.133 4.84-77.403-53.984-144.074-131.387-148.914-2.983-.187-5.95-.279-8.898-.279ZM-377.004-1054.892ZM249.482-552.5699999999999ZM249.482-552.5699999999999Z" style="fill:#000;fill-opacity:1;stroke-linejoin:miter"/><path d="M665.543-57.536c-43.482 0-80.023 33.842-82.773 77.837-1.584 25.325 8.36 48.706 25.314 65.023v.001l-.004.001a82.996 82.996 0 0 0 25.973 16.958l5.325-1.418 9.878-1.942c-12.64-2.8-24.017-8.754-33.322-16.95l-.006.001c-16.845-14.843-26.9-37.04-25.39-61.188 2.493-39.87 35.608-70.54 75.013-70.54 1.579 0 3.168.05 4.766.15 41.469 2.593 72.984 38.312 70.39 79.78-1.048 16.773-7.517 31.919-17.594 43.836a75.597 75.597 0 0 1-25.229 19.447q1.024-.008 2.05-.008 6.381 0 12.9.317A83.476 83.476 0 0 0 731.8 75.617h-.007.008c9.546-12.578 15.615-28.014 16.675-44.954 2.86-45.759-31.914-85.173-77.673-88.034a84.304 84.304 0 0 0-5.26-.165Z" style="fill:#000;fill-opacity:1;stroke-linejoin:miter"/><path d="m698.01 23.383.009 4.22q-1.131 12.833-10.353 21.12-9.29 8.283-22.69 7.767-12.834-1.131-21.12-10.353-8.284-9.29-7.767-22.69 1.13-12.834 10.352-21.12 9.29-8.284 22.69-7.767 12.834 1.13 21.12 10.352 2.657 2.982 4.493 6.589l1.591 3.728q1.367 3.868 1.675 8.154" style="fill:#000;fill-opacity:1;stroke-linejoin:miter"/><path d="m716.296 5.083.005 2.69q-.72 8.18-6.598 13.46-5.92 5.28-14.461 4.95-8.18-.72-13.46-6.597-1.693-1.901-2.863-4.2l-1.015-2.376q-.87-2.465-1.067-5.196-.369-8.399 4.813-14.351 5.182-5.952 13.551-6.744 8.399-.369 14.351 4.813 5.952 5.182 6.744 13.551" style="fill:#fff;fill-opacity:1;stroke-linejoin:miter"/><path d="M-288.852-244.995ZM-498.959-14.67l.02.003-.015-.003ZM-288.852-244.995ZM-59.043 1475.298l-.01.003c-8.904 1.292-18.13 2.328-27.647 3.137 1.903-.162 3.795-.333 5.675-.513-17.673 1.693-36.39 2.561-55.933 2.794a1204.255 1204.255 0 0 0 30.22 21.998l.546-.028.155-.007h.001l-.155.008-.549.027c111.062 78.234 237.288 138.952 375.797 177.08 107.447 29.577 215.501 43.693 321.794 43.693 67.751 0 134.787-5.735 200.493-16.856l-1.197-.283a3040.793 3040.793 0 0 1-7.397-1.762h.007c2.86.685 5.725 1.366 8.595 2.044a1206.64 1206.64 0 0 0 55.603-10.762l-.088-.02-.157-.035-.407-.092c-.24-.054-.48-.107-.719-.162-.091-.02-.183-.04-.275-.062l-1.723-.388c-41.072-9.261-81.295-18.632-118.694-29.102l-.007.001a1153.684 1153.684 0 0 1-59.913 5.44l.03.01-.007.001h-.004a1159.97 1159.97 0 0 1-74.169 2.38c-101.932 0-205.553-13.537-308.592-41.901-113.63-31.28-218.641-78.414-313.3-138.357l-.001.001-.01.003c-15.885 3.392-32.918 5.803-50.867 7.416v.001c17.949-1.614 34.982-4.025 50.867-7.418a1178.14 1178.14 0 0 1-27.961-18.289Zm-23.535 25.763-.832.073h-.001l.833-.073Zm-.845.074v.001a858.64 858.64 0 0 1-3.258.274c1.088-.089 2.174-.18 3.257-.275Zm-3.352.283a659.184 659.184 0 0 0-.447.036l.37-.03c.025-.003.05-.005.076-.006Zm-16.836 1.136-.009.001-.474.025v.001l.474-.027h.008Zm-2.175.114v.001a.07.07 0 0 0-.013 0v.001l.013-.002Zm-.164.01h-.015.014Z" style="fill:#000;fill-opacity:1;stroke-linejoin:miter"/><path d="M-105.277 1502.643h-.002l-.064.003v.001l.062-.004h.003ZM-590.3 779.538a1149.468 1149.468 0 0 0 13.771 54.972l.083.116-.006.001c.596 2.316 1.244 4.63 1.898 6.942a1211.537 1211.537 0 0 0 18.368 59.097c54.503 160.763 142.337 308.832 257.59 433.807v.001a.305.305 0 0 0-.009.018 1376.935 1376.935 0 0 0 16.739 17.759c7.889-16.02 16.232-31.28 25.226-45.546l-2.505-2.693a11.5 11.5 0 0 1-.003 0 1180.94 1180.94 0 0 1-13.48-14.762 397.986 397.986 0 0 0-4.403 6.892v.001a409.771 409.771 0 0 1 4.397-6.889 1165.636 1165.636 0 0 1-84.046-105.318l-2.635 5.023 2.631-5.022a1168.055 1168.055 0 0 1-94.039-158.008l-.01-.01a.246.246 0 0 1-.008-.01l.005.001a1169.467 1169.467 0 0 1-30.065-66.101l-.009-.01-.008-.01.005.001c-.684-1.647-1.366-3.29-2.045-4.936a.196.196 0 0 0-.008-.01l-.006-.007-.056-.066-.314-.369.005.001.368.432a1167.435 1167.435 0 0 1-23.402-61.65l-.008-.01a1810.315 1810.315 0 0 1-42.756-55.575c-13.808-18.695-27.558-38.089-41.26-58.062ZM-564.7 398.427a8360.355 8360.355 0 0 0-51.127 13.326 1722.224 1722.224 0 0 0-1.763 24.171 9019.14 9019.14 0 0 1 50.712-13.27 1275.42 1275.42 0 0 1 2.191-24.227h-.013ZM-504.37 127.575a2724.463 2724.463 0 0 0-55.905 10.293 1660.55 1660.55 0 0 0-7.747 24.882c5.596-1.111 11.103-2.19 16.517-3.235 13.475-2.6 26.372-4.991 38.768-7.2a1233.312 1233.312 0 0 1 8.383-24.74h-.015ZM1317.074-455.172l-.013.001q-14.069 19.817-24.581 43.663l.013.001a1139.953 1139.953 0 0 1 36.073 28.572l-.04.006h.014c278.22 229.592 438.558 581.192 421.173 949.434a1154.783 1154.783 0 0 1-3.564 51.257h.018l.01.009h-.017c-.461 4.88-.942 9.773-1.455 14.667h.018l-.016.001h.009v.002h-.009c-.4 3.787-.815 7.577-1.25 11.368-6.767 58.94-18.148 118.114-34.385 177.1-115.174 418.395-445.163 719.959-838.045 818.343a1155.178 1155.178 0 0 1-22.56 5.41c1.42 16.429 2.61 33.158 3.743 50.053 7.57-1.688 15.103-3.442 22.614-5.267h.008c413.305-100.438 761.198-416.178 882.096-855.366 14.645-53.203 25.502-106.555 32.733-159.767l-.002-.001h.002c.806-5.928 1.565-11.849 2.28-17.767h.015-.007.008l-.016-.001h.015l-.013-.013v.001c48.465-401.157-108.357-792.58-400.393-1050.942l-.014.001-.004.001.004-.002a1183.426 1183.426 0 0 0-33.099-28.244h-.013q-13.088 4.498-29.542 9.888 3.845-11.526 8.486-21.731.858-1.883 1.722-3.722a1157.026 1157.026 0 0 0-22.016-16.955Z" style="fill:#000;fill-opacity:1;stroke-linejoin:miter"/><path d="m-105.26 1502.642-.227.012-.704.035v.001l.703-.037.228-.011ZM-101.82 1502.454c-.598.034-1.198.068-1.799.1v.001l.032-.003c.59-.031 1.179-.065 1.767-.098Z" style="fill:#000;fill-opacity:1;stroke-linejoin:miter"/><path d="M-104.555 1502.604v.001l-.24.012-.692.036v.001l.694-.037.066-.004.171-.009ZM-405.581-175.098a1200.824 1200.824 0 0 0-66.162 107.455l.026.054a535.833 535.833 0 0 0-5.674 10.425l.465.638-.006.011q-9.812 17.586-16.016 39.559-.445 1.52-.877 3.033-2.615-.459-5.107-.744h-.022a1173.555 1173.555 0 0 0-11.198 23.839q2.387.05 6.335.53l3.947.123.944.03q7.332.532 8.568.808 6.606.558 24.48 5.756 3.078.983 6.132 2.037c2.7-5.756 5.445-11.48 8.232-17.172q-7.747-4-15.525-7.261-6.774-2.685-12.993-4.583 6.77-16.88 9.026-20.283 2.883-6.003 5.965-11.36 1.728-3.003 3.519-5.802l-.442-.828.442.828q8.369-13.086 18.11-21.742 9.612-9.088 31.44-18.908 4.65-1.987 12.37-4.63a1213.714 1213.714 0 0 1 13.827-22.027l-.397-.339.004.001.397.337a1139.381 1139.381 0 0 1 16.744-25.303l-.617-.465q-12.006-9.065-23.628-20.323-6.752-6.941-12.305-13.694ZM126.18-604.799a1215.74 1215.74 0 0 0-53.95 24.008C-67.54-514.484-194.3-421.696-300.11-306.943l.008.007-.003.001c-7.3 7.903-14.488 15.91-21.574 24.02q17.508 16.338 32.827 37.92a1148.81 1148.81 0 0 1 21.874-24.628q-1.165-1.564-2.34-3.103-.665-.869-1.332-1.73l.003.001q1.849 2.384 3.672 4.832c105.55-115.474 233.125-208 374.037-272.647q-1.65-1.43-3.262-2.905l-.073-.066q-.02-.02-.042-.039-1-.916-1.984-1.848 2.628 2.487 5.363 4.858a1164.92 1164.92 0 0 1 56.837-24.274q-1.761-1.16-3.471-2.363-1.108-.78-2.195-1.577l-.083-.061q-6.681-4.91-12.548-10.501-10.412-11.258-19.422-23.753ZM254.903-650.068c-2.138.619-4.275 1.244-6.409 1.875q.384 5.42.81 9.323 3.587 31.246 4.263 40.983a1154 1154 0 0 1 21.051-6.19q-.374-1.2-.755-2.381-2.979-9.215-6.459-17.364-7.622-17.501-12.498-26.246ZM-920.419-942.406Z" style="fill:#000;fill-opacity:1;stroke-linejoin:miter"/><path d="m1503.8-703.282-.015.002q3.674 5.05 7.008 10.15 21.712 32.279 19.168 74.584l.016.001a1483.708 1483.708 0 0 1 51.736 44.059l-.004.014.016.001c317.72 283.36 511.515 700.87 494.913 1159.555-28.927 799.259-685.964 1427.636-1479.258 1427.636-18.11 0-36.29-.328-54.534-.988-816.765-29.56-1455.082-715.051-1426.726-1531.58a126.46 126.46 0 0 0-.067-.145h.008l.06.128.077-2.196c.469-12.935 1.101-25.825 1.896-38.668l-.007-.019.009.001c.187-3.02.382-6.032.587-9.042l-.006-.013-.001-.004.008.001c.997-14.67 2.206-29.275 3.624-43.816l-.007-.017c-5.051-13.957-9.612-27.53-13.465-40.58-9.762-33.065-15.005-62.882-19.343-92.42l-.01.001a1533.18 1533.18 0 0 0-9.93 61.119 1541.57 1541.57 0 0 0-7.364 60.51l.023.066-.01.001a1541.96 1541.96 0 0 0-6.969 101.036c-30.606 845.65 630.118 1555.996 1475.768 1586.602 18.874.683 37.68 1.022 56.412 1.022 820.607 0 1500.268-650.013 1530.19-1476.79 17.645-487.51-194.47-930.053-539.319-1223.318h-.008a1533.904 1533.904 0 0 0-84.476-66.893ZM-896.722 186.549a1526.04 1526.04 0 0 0-6.715 30.653q4.765 5.929 9.22 11.314a11.46 11.46 0 0 1-7.444 8.918c16.204-3.8 32.379-7.59 48.468-11.35 1.745-8.29 3.55-16.552 5.423-24.787h-.009a5508.624 5508.624 0 0 0-13.784 3.206c-7.16 1.673-14.33 3.351-21.511 5.033q-7.671-12.706-13.64-22.987ZM-683.558-311.07a1529.13 1529.13 0 0 0-8.012 12.275q3.796 12.489 6.7 17.843.006.011.011.011.06 0-.166-1.506 1.378-5.79 1.28-6.96.422-7.576.27-17.129-.029-2.248-.076-4.533ZM-516.736-445.713q-2.36.912-4.942 1.871-3.868 1.897-52.463 15.513-4.71 1.531-8.825 3.166-1.06.378-.856.862-.252-.064-.497-.13h-.006l.014.004.773.465q-.208-.17-.28-.33l.012-.001q7.377 1.863 20.691 1.863 7.83 0 17.719-.645h.005q-1.16 6.746-2.315 13.775a1487.356 1487.356 0 0 1 30.98-36.413ZM153.88-935.81a1520.978 1520.978 0 0 0-111.883 38.54l-.003.006c-169.148 65.726-324.057 160.719-458.269 278.966l.005.008h-.004a1499.7 1499.7 0 0 0-24.22 21.79q7.648 13.445 10.313 32.657.978 14.772-5.652 33.1a1490.015 1490.015 0 0 1 37.782-35.45l.005.001c121.919-110.475 262.178-200.803 415.4-265.985a1471.827 1471.827 0 0 1 71.29-28.16q2.424-5.125 5.167-10.17 24.395-38.645 60.07-65.303ZM-901.687 237.44l-.025.006-6.111 1.434c.026.04.018.081.01.122l5.012-1.226c.383-.093.758-.206 1.124-.336ZM527.063-999.187A1533.88 1533.88 0 0 0 394.74-987.59q10.429 3.38 20.394 8.37 5.394 2.702 10.65 5.873 11.724 6.589 30.773 21.581.663.521 1.334 1.053 3.176 2.478 8.137 6.632a1478.217 1478.217 0 0 1 35.192-2.645q-5.256-6.816-10.986-13.75-4.045-4.861-8.105-9.418 21.711-14.909 44.938-29.293Z" style="fill:#000;fill-opacity:1;stroke-linejoin:miter"/><path d="m-583.814-424.295.008.002h-.012v.002l-.001-.004ZM1195.22-879.264q.401.974.794 1.954l-.012.002h.013q3.549 8.84 6.528 18.116 4.796 14.533 8.766 31.737 1.374 5.956 2.649 12.232h.012a1464.76 1464.76 0 0 1 35.257 16.753q.027-13.5-.98-26.837l-12.22-.712 12.219.708 35.85 2.082q20.518 1.965 35.912 3.79a1522.849 1522.849 0 0 0-124.775-59.825ZM-472.368-52.61l43.132-36.683 51.16-17.938 2.233-20.643-24.8-12.006-22.123-34.719-20.41 6.227-45.488-4.513-6.863 34.9 23.159 85.374M-850.238-397.518l-38.324 23.89 13.646 25.587 35.951-.878-11.273-48.6M230.37-305.245l-8.238-2.012q-24.946-6.318-47.8-10.078-15.137-2.388-28.182-2.216-23.239-.204-46.822 15.284-8.497 5.728-16.529 12.024l.906 73.848 142.32-13.647 4.346-73.203M549.986-338.215l-43.872 99.98q75.65-3.415 105.966 3.835 31.655 5.651 79.946 34.869 2.908-37.03-2.011-61.368-3.974-22.677-21.682-42.622-14.664-15.772-42.489-23.39-25.737-7.089-75.858-11.304M-277.93 1313.813l.525-.71c-12.28 18.018-24.24 35.572-38.42 65.32-14.35 30.103-30.955 72.635-47.79 115.775l-8.84-15.478.375.061c49.964 8.108 99.25 16.081 148.73 18.927 49.605 2.852 99.613.563 150.316-1.769 6.323-.29 11.684 4.6 11.974 10.922.291 6.323-4.599 11.683-10.921 11.974-50.5 2.323-101.697 4.688-152.685 1.755-50.862-2.925-101.316-11.109-151.086-19.185l-.376-.061a11.46 11.46 0 0 1-8.84-15.478c16.718-42.837 33.664-86.278 48.454-117.305 14.958-31.379 27.724-50.104 40.17-68.366.165-.243.34-.48.525-.71 3.956-4.94 11.168-5.738 16.108-1.781 4.94 3.957 5.738 11.169 1.781 16.109ZM727.402 1684.137l37.572 8.71.268.067 118.096 30.398-14.317 11.153-.238-49.829c-.03-6.33 5.076-11.484 11.405-11.515 6.329-.03 11.484 5.076 11.514 11.405l.239 49.829a11.46 11.46 0 0 1-14.317 11.153L759.53 1715.11l.268.066-37.572-8.712c-6.165-1.43-10.005-7.586-8.575-13.752 1.43-6.165 7.587-10.005 13.752-8.575ZM-741.04-1152.208h-.001v.002-.002M-417.233-205.601v.001l-.001.002.001-.003" style="fill:#000;fill-opacity:1;stroke-linejoin:miter"/><defs><radialGradient id="a" cx="648.283" cy="42.544" r="198.964" gradientUnits="userSpaceOnUse"><stop offset="0%" style="stop-color:#fff;stop-opacity:1"/><stop offset="70.757%" style="stop-color:#fff;stop-opacity:1"/><stop offset="100%" style="stop-color:#001966;stop-opacity:1"/></radialGradient><radialGradient id="b" cx="716.392" cy="180.416" r="169.885" gradientUnits="userSpaceOnUse"><stop offset="0%" style="stop-color:#000;stop-opacity:1"/><stop offset="43.199%" style="stop-color:#000;stop-opacity:1"/><stop offset="100%" style="stop-color:#fff;stop-opacity:1"/></radialGradient></defs></svg>